# xmcd CD database file
#
# Track frame offsets:
#	150
#	25357
#	50392
#
# Disc length: 1067 seconds
#
# Revision: 2
# Processed by: cddbd v1.5.1PL0 Copyright (c) Steve Scherf et al.
# Submitted via: CDex 1.51
#
DISCID=1e042903
DTITLE=ムック - モノクロの景色
DYEAR=2004
DGENRE=Rock
TTITLE0=モノクロの景色
TTITLE1=ぬけがら
TTITLE2=９月３日の刻印（ライブバージョン）
EXTD=YEAR: 2004
EXTT0=
EXTT1=
EXTT2=
PLAYORDER=
